<svg xmlns="http://www.w3.org/2000/svg" xmlns:xlink="http://www.w3.org/1999/xlink" width="484" height="478" viewBox="0 0 484 478">
  <defs>
    <radialGradient id="radial-gradient" cx="0.5" cy="0.5" r="0.5" gradientUnits="objectBoundingBox">
      <stop offset="0" stop-color="#fff" stop-opacity="0"/>
      <stop offset="0.67" stop-color="#f8fcff"/>
      <stop offset="1" stop-color="#ebf7ff"/>
    </radialGradient>
    <filter id="Ellipse_62" x="74" y="356" width="108" height="108" filterUnits="userSpaceOnUse">
      <feOffset dy="3" input="SourceAlpha"/>
      <feGaussianBlur stdDeviation="3" result="blur"/>
      <feFlood flood-opacity="0.161"/>
      <feComposite operator="in" in2="blur"/>
      <feComposite in="SourceGraphic"/>
    </filter>
    <filter id="Ellipse_58" x="187" y="0" width="108" height="108" filterUnits="userSpaceOnUse">
      <feOffset dy="3" input="SourceAlpha"/>
      <feGaussianBlur stdDeviation="3" result="blur-2"/>
      <feFlood flood-opacity="0.161"/>
      <feComposite operator="in" in2="blur-2"/>
      <feComposite in="SourceGraphic"/>
    </filter>
    <filter id="Ellipse_60" x="0" y="164" width="108" height="108" filterUnits="userSpaceOnUse">
      <feOffset dy="3" input="SourceAlpha"/>
      <feGaussianBlur stdDeviation="3" result="blur-3"/>
      <feFlood flood-opacity="0.161"/>
      <feComposite operator="in" in2="blur-3"/>
      <feComposite in="SourceGraphic"/>
    </filter>
    <filter id="Ellipse_59" x="376" y="165" width="108" height="108" filterUnits="userSpaceOnUse">
      <feOffset dy="3" input="SourceAlpha"/>
      <feGaussianBlur stdDeviation="3" result="blur-4"/>
      <feFlood flood-opacity="0.161"/>
      <feComposite operator="in" in2="blur-4"/>
      <feComposite in="SourceGraphic"/>
    </filter>
    <filter id="Ellipse_61" x="303" y="356" width="108" height="108" filterUnits="userSpaceOnUse">
      <feOffset dy="3" input="SourceAlpha"/>
      <feGaussianBlur stdDeviation="3" result="blur-5"/>
      <feFlood flood-opacity="0.161"/>
      <feComposite operator="in" in2="blur-5"/>
      <feComposite in="SourceGraphic"/>
    </filter>
    <linearGradient id="linear-gradient" x2="1" gradientUnits="objectBoundingBox">
      <stop offset="0" stop-color="#0896a5"/>
      <stop offset="1" stop-color="#159b81"/>
    </linearGradient>
  </defs>
  <g id="Core_values" data-name="Core values" transform="translate(-155 -1940)">
    <g id="grain" transform="translate(196 1981)" stroke="#d4eeff" stroke-width="1" fill="url(#radial-gradient)">
      <rect width="400" height="400" rx="200" stroke="none"/>
      <rect x="0.5" y="0.5" width="399" height="399" rx="199.5" fill="none"/>
    </g>
    <g id="Ellipse_78" data-name="Ellipse 78" transform="translate(246 2031)" fill="none" stroke="#419ad5" stroke-linecap="round" stroke-linejoin="round" stroke-width="1" stroke-dasharray="5 5" opacity="0.3">
      <circle cx="150" cy="150" r="150" stroke="none"/>
      <circle cx="150" cy="150" r="149.5" fill="none"/>
    </g>
    <g id="Ellipse_736" data-name="Ellipse 736" transform="translate(296 2081)" fill="#fff" stroke="#bedef2" stroke-linecap="round" stroke-linejoin="round" stroke-width="1" stroke-dasharray="5 5">
      <circle cx="100" cy="100" r="100" stroke="none"/>
      <circle cx="100" cy="100" r="99.5" fill="none"/>
    </g>
    <g transform="matrix(1, 0, 0, 1, 155, 1940)" filter="url(#Ellipse_62)">
      <circle id="Ellipse_62-2" data-name="Ellipse 62" cx="45" cy="45" r="45" transform="translate(83 362)" fill="#fff"/>
    </g>
    <text id="Care" transform="translate(283 2414)" font-size="14" font-family="DMSans-Medium, 'DM Sans \31 4pt'" font-weight="500"><tspan x="-15" y="0">Care</tspan></text>
    <g transform="matrix(1, 0, 0, 1, 155, 1940)" filter="url(#Ellipse_58)">
      <circle id="Ellipse_58-2" data-name="Ellipse 58" cx="45" cy="45" r="45" transform="translate(196 6)" fill="#fff"/>
    </g>
    <text id="Integrity" transform="translate(396 2058)" font-size="14" font-family="DMSans-Medium, 'DM Sans \31 4pt'" font-weight="500"><tspan x="-27" y="0">Integrity</tspan></text>
    <g transform="matrix(1, 0, 0, 1, 155, 1940)" filter="url(#Ellipse_60)">
      <circle id="Ellipse_60-2" data-name="Ellipse 60" cx="45" cy="45" r="45" transform="translate(9 170)" fill="#fff"/>
    </g>
    <text id="Sustainability" transform="translate(209 2222)" font-size="14" font-family="DMSans-Medium, 'DM Sans \31 4pt'" font-weight="500"><tspan x="-44" y="0">Sustainability</tspan></text>
    <g transform="matrix(1, 0, 0, 1, 155, 1940)" filter="url(#Ellipse_59)">
      <circle id="Ellipse_59-2" data-name="Ellipse 59" cx="45" cy="45" r="45" transform="translate(385 171)" fill="#fff"/>
    </g>
    <text id="Quality" transform="translate(585 2222)" font-size="14" font-family="DMSans-Medium, 'DM Sans \31 4pt'" font-weight="500"><tspan x="-23" y="0">Quality</tspan></text>
    <g transform="matrix(1, 0, 0, 1, 155, 1940)" filter="url(#Ellipse_61)">
      <circle id="Ellipse_61-2" data-name="Ellipse 61" cx="45" cy="45" r="45" transform="translate(312 362)" fill="#fff"/>
    </g>
    <text id="Assurance" transform="translate(512 2414)" font-size="14" font-family="DMSans-Medium, 'DM Sans \31 4pt'" font-weight="500"><tspan x="-34" y="0">Assurance</tspan></text>
    <g id="Logo" transform="translate(223 -1631)">
      <path id="Union_6" data-name="Union 6" d="M123.66,48A85.651,85.651,0,0,1,94.175,31.661l3.16-2,.012-.006c.111.088.228.168.339.249a117.282,117.282,0,0,0,19.735,11.835,50.867,50.867,0,0,0,18.189,4.973c.2.006.4.019.6.025a32.68,32.68,0,0,0,11.95-1.753,22.843,22.843,0,0,0,9.843-6.2,14.723,14.723,0,0,0,3.7-8.422,15.341,15.341,0,0,0-.437-4.65c-1.921-7.639-9.079-12.445-16.144-14.663a47.4,47.4,0,0,0-22.6-1.231,76.43,76.43,0,0,0-24.071,8.988,14.16,14.16,0,0,0-2.187,1.31,54.043,54.043,0,0,1,13.5-8.458,62.662,62.662,0,0,1,19.914-5.483,49.1,49.1,0,0,1,8.7.025c7.927.721,16.576,3.3,22.23,9.262a19.952,19.952,0,0,1,4.767,8.361c2.8,10.157-4.189,18.959-13.046,22.924A37.8,37.8,0,0,1,136.79,50,45.468,45.468,0,0,1,123.66,48Zm-10.947.7a50.911,50.911,0,0,1-14.044-7.471c-.838-.6-1.681-1.2-2.513-1.8-4.81-3.481-8.992-7.739-13.8-11.251a85.675,85.675,0,0,0-12.11-7.6c-1.121-.566-2.26-1.094-3.424-1.566a4.219,4.219,0,0,0-1.2-.448c2.735-.038,5.6,1.125,8.069,2.182A56.577,56.577,0,0,1,88,29.921c1.232,1.05,2.464,2.113,3.7,3.17,2.266,1.94,4.552,3.854,6.923,5.663,1.159.882,2.329,1.7,3.511,2.586s2.353,1.784,3.6,2.573a74.218,74.218,0,0,0,9.714,5.451A14.612,14.612,0,0,1,112.714,48.7ZM34.25,44.932a37.126,37.126,0,0,1-6.474-2.362,15.766,15.766,0,0,1-2.328-1.3l.013.013a9.319,9.319,0,0,1-1.75-1.424l.326.2a1.281,1.281,0,0,0-.326-.2c5.445,2.182,10.686,3.829,16.618,4.053a73.887,73.887,0,0,0,30.453-5.856c2.575-1.044,5.1-2.213,7.57-3.487q1.81-.942,3.585-1.958a19.792,19.792,0,0,1,2.3-1.262c.013.013,2.513,2.1,2.513,2.1a81.841,81.841,0,0,1-18.133,8.286c-7.442,2.495-15.742,4.483-23.854,4.483A41.25,41.25,0,0,1,34.25,44.932Zm1-3.364a32.581,32.581,0,0,1-10.686-3.785,18.624,18.624,0,0,1-3.579-3,17.483,17.483,0,0,1-1.558-1.833,18.16,18.16,0,0,1-2.858-5.477,12.3,12.3,0,0,1-.443-5.5,13.277,13.277,0,0,1,2.07-5.4,17.41,17.41,0,0,1,3.061-3.425,24.651,24.651,0,0,1,4.133-2.773c8.241-4.513,19.07-4.034,28.019-2.362A95.009,95.009,0,0,1,79.7,17.556a94.136,94.136,0,0,1,11.272,6.733l-3.647,1.945s-14.574-11.692-31.444-15.5c-8.71-1.964-20.24-1.964-27.767,1.555-3.683,1.721-6.338,3.7-7.834,6.017C17,23.4,18.8,29.3,24.746,34.538c6,5.278,17.025,5.856,20.069,5.788a88.383,88.383,0,0,0,19.014-2.8,55.584,55.584,0,0,1-21.646,4.634A39.473,39.473,0,0,1,35.254,41.569ZM91.561,30.461c-1.017-.8-2.033-1.616-3.05-2.424a103.048,103.048,0,0,1,30.7-13.153c14.284-3.668,21.6-1.25,21.6-1.25l-.006.006q-2.541-.065-5.082.075a67.747,67.747,0,0,0-12.128,1.8,77.633,77.633,0,0,0-10.5,3.344,103.981,103.981,0,0,0-10.52,4.836q-2.874,1.51-5.649,3.22-1.385.849-2.741,1.747c-.241.164-2.434,1.805-2.62,1.805A.015.015,0,0,1,91.561,30.461Zm4.7-10.339-.03.026Z" transform="translate(82 3767)" fill="url(#linear-gradient)"/>
      <path id="Union_8" data-name="Union 8" d="M58.081,11.785a1.743,1.743,0,0,1-.771-.617,1.607,1.607,0,0,1-.274-.929A1.693,1.693,0,0,1,57.4,9.172a2.375,2.375,0,0,1,1.07-.742,2.163,2.163,0,0,1-.358-.539A1.422,1.422,0,0,1,58,7.333a1.136,1.136,0,0,1,.21-.682,1.36,1.36,0,0,1,.594-.475A2.129,2.129,0,0,1,59.7,6a1.938,1.938,0,0,1,.882.189,1.236,1.236,0,0,1,.541.507,1.219,1.219,0,0,1,.144.722h-1a.643.643,0,0,0-.156-.475.621.621,0,0,0-.458-.169.669.669,0,0,0-.47.162.522.522,0,0,0-.176.4.8.8,0,0,0,.137.443,3.276,3.276,0,0,0,.477.565l1.613,1.514.62-.968h1.078l-.791,1.274-.222.338L63.4,11.89H62.1l-.007.006-.751-.714a2.934,2.934,0,0,1-.954.617,3.122,3.122,0,0,1-1.157.2A2.913,2.913,0,0,1,58.081,11.785Zm-.046-1.579a.9.9,0,0,0,.333.709,1.28,1.28,0,0,0,.856.286,2.009,2.009,0,0,0,1.456-.637L59.067,9.029C58.375,9.289,58.035,9.679,58.035,10.206Zm36.836,1.365a2.9,2.9,0,0,1-1.123-1.046A2.849,2.849,0,0,1,93.33,9.01a2.794,2.794,0,0,1,.418-1.515,2.828,2.828,0,0,1,1.129-1.046,3.276,3.276,0,0,1,1.561-.376,3.334,3.334,0,0,1,1.731.448,2.613,2.613,0,0,1,1.1,1.28h-1.2l.006-.007a1.549,1.549,0,0,0-.659-.65,2.134,2.134,0,0,0-.974-.221,2.169,2.169,0,0,0-1.078.26,1.894,1.894,0,0,0-.738.727A2.2,2.2,0,0,0,94.355,9a2.244,2.244,0,0,0,.268,1.1,1.863,1.863,0,0,0,.738.735,2.169,2.169,0,0,0,1.078.259,1.96,1.96,0,0,0,1.32-.429,1.811,1.811,0,0,0,.62-1.17H96.093V8.743H99.45v.735a2.813,2.813,0,0,1-.5,1.235,2.964,2.964,0,0,1-1.058.9,3.169,3.169,0,0,1-1.45.339A3.243,3.243,0,0,1,94.872,11.571Zm-47.424,0a2.9,2.9,0,0,1-1.123-1.046,2.849,2.849,0,0,1-.418-1.514,2.842,2.842,0,0,1,1.548-2.562,3.272,3.272,0,0,1,1.56-.376,3.331,3.331,0,0,1,1.731.448,2.608,2.608,0,0,1,1.1,1.28h-1.2V7.794a1.556,1.556,0,0,0-.66-.65,2.05,2.05,0,0,0-.974-.221,2.163,2.163,0,0,0-1.077.26,1.89,1.89,0,0,0-.738.727A2.2,2.2,0,0,0,46.926,9a2.244,2.244,0,0,0,.267,1.1,1.859,1.859,0,0,0,.738.735,2.162,2.162,0,0,0,1.077.259,1.989,1.989,0,0,0,1.326-.429,1.807,1.807,0,0,0,.62-1.17H48.669V8.743h3.357v.735a2.813,2.813,0,0,1-.5,1.235,2.956,2.956,0,0,1-1.058.9,3.169,3.169,0,0,1-1.45.339A3.243,3.243,0,0,1,47.448,11.571Zm33.989.338V6.143H84.8v.774H82.436V8.593h2.1v.774h-2.1v1.768H84.8v.774Zm-13,0V6.143H71.8v.774H69.432V8.593h2.1v.774h-2.1v1.768H71.8v.774Zm34.556-.007V9.816l-2.024-3.673h1.11l1.411,2.828L104.9,6.143H106l-2.012,3.673V11.9Zm-67.48,0V6.143h1V11.9Zm-10.731,0V6.143h1V11.9Zm-3.363,0V7.956L19.56,11.9h-.693L17,7.956V11.9H16V6.143h1.078l2.135,4.518,2.129-4.518h1.071V11.9ZM78.073,11.9l-3-4.3v4.3h-1V6.131h1l3,4.29V6.131h1V11.9Zm-35.2,0-3-4.3v4.3h-1V6.131h1l3,4.29V6.131h1V11.9Zm-10.73,0-3.005-4.3v4.3h-1V6.131h1l3.005,4.29V6.131h1V11.9Zm58.1,0-1.4-2.3h-.764v2.3h-1V6.136h2.1a2.734,2.734,0,0,1,1.189.234,1.65,1.65,0,0,1,.725.625,1.605,1.605,0,0,1,.241.871,1.663,1.663,0,0,1-.346,1.021,1.777,1.777,0,0,1-1.065.624L91.429,11.9ZM88.079,8.835V8.84h1.1a1.2,1.2,0,0,0,.843-.266.935.935,0,0,0,.287-.715.89.89,0,0,0-.282-.7,1.236,1.236,0,0,0-.848-.254h-1.1Z" transform="translate(112 3839)" fill="#3d3d3d"/>
      <path id="Union_7" data-name="Union 7" d="M80.777,20,72.8,10.01l.02,4.455V20H70.349V6.006h2.237L80.566,16l-.019-4.174V6.013h2.467V20ZM35.7,20l-7.98-9.991.02,4.455V20H25.27V6.006h2.237L35.487,16l-.02-4.174V6.013h2.467V20Zm54.112-.006V6.006h2.468V19.995Zm-28.723,0V6.006h2.467V19.995ZM16,19.995V6.006h2.467V19.995Zm99.007-.007V6.007h10.869V8.123h-8.421v3.734h8.06v2.077h-8.06v3.918H126v2.136Zm-12.592,0V8.162h-4.79V6.006h12.046V8.162h-4.79V19.988Zm-57.692,0V6.007H55.191V8.162h-8v4.317h7.6V14.6h-7.6v5.392Zm52.9-13.982h.007Z" transform="translate(102 3819)" fill="#3d3d3d"/>
    </g>
    <g id="Assurance-2" data-name="Assurance">
      <path id="Path_100171" data-name="Path 100171" d="M32.553,19.092a16,16,0,1,0,16,16A16.018,16.018,0,0,0,32.553,19.092Zm0,30.435A14.435,14.435,0,1,1,46.987,35.092,14.451,14.451,0,0,1,32.553,49.526Zm6.662-21.687H39.2a2.9,2.9,0,0,0-2.065.866l-6.49,6.555-2.68-2.68a2.931,2.931,0,0,0-4.145,4.145l4.761,4.761a2.935,2.935,0,0,0,4.145,0c1.8-1.8,3.626-3.652,5.387-5.439q1.587-1.61,3.178-3.218a2.927,2.927,0,0,0-2.078-4.99Z" transform="translate(479.447 2311.908)" fill="#c2a349"/>
      <path id="Path_100199" data-name="Path 100199" d="M57.4,35.829a5.986,5.986,0,0,0-1.23-7.056l-2.8-2.659a4.173,4.173,0,0,1-1.243-2.178l-.876-3.782a5.886,5.886,0,0,0-5.425-4.605l-3.833-.216a4.085,4.085,0,0,1-2.335-.86l-3.074-2.328a5.812,5.812,0,0,0-7.081,0l-3.074,2.328a4.085,4.085,0,0,1-2.335.86l-3.833.216a5.886,5.886,0,0,0-5.425,4.605l-.876,3.782a4.173,4.173,0,0,1-1.242,2.178l-2.8,2.659a5.986,5.986,0,0,0-1.23,7.056L10.419,39.3a4.2,4.2,0,0,1,.432,2.476l-.456,3.857a5.947,5.947,0,0,0,3.541,6.2l3.529,1.529a4.127,4.127,0,0,1,1.9,1.616l2.1,3.251a5.833,5.833,0,0,0,6.654,2.45L31.8,59.558a4.067,4.067,0,0,1,2.485,0l3.675,1.124a5.921,5.921,0,0,0,1.734.261,5.845,5.845,0,0,0,4.92-2.712l2.1-3.251a4.127,4.127,0,0,1,1.9-1.616l3.529-1.529a5.947,5.947,0,0,0,3.541-6.2l-.456-3.857a4.2,4.2,0,0,1,.432-2.476ZM54.226,38.56a5.86,5.86,0,0,0-.594,3.406l.456,3.857a4.27,4.27,0,0,1-2.574,4.511l-3.529,1.529a5.752,5.752,0,0,0-2.619,2.223l-2.1,3.251a4.189,4.189,0,0,1-4.837,1.781L34.751,58a5.669,5.669,0,0,0-3.419,0l-3.675,1.124a4.189,4.189,0,0,1-4.837-1.781l-2.1-3.251A5.752,5.752,0,0,0,18.1,51.863L14.57,50.334A4.27,4.27,0,0,1,12,45.823l.456-3.857a5.86,5.86,0,0,0-.594-3.406l-1.732-3.467a4.3,4.3,0,0,1,.894-5.129l2.8-2.659a5.817,5.817,0,0,0,1.709-3l.876-3.782a4.226,4.226,0,0,1,3.944-3.348l3.833-.216a5.694,5.694,0,0,0,3.212-1.183l3.074-2.328a4.174,4.174,0,0,1,5.148,0L38.69,15.78A5.694,5.694,0,0,0,41.9,16.963l3.833.216a4.226,4.226,0,0,1,3.944,3.348l.876,3.782a5.816,5.816,0,0,0,1.709,3l2.8,2.659a4.3,4.3,0,0,1,.894,5.129Z" transform="translate(478.958 2311.057)" fill="#10998e"/>
    </g>
    <g id="Integrity-2" data-name="Integrity">
      <path id="Path_100175" data-name="Path 100175" d="M9.492,15.92h5.356A1.026,1.026,0,0,0,15.873,14.9V11.074a1.033,1.033,0,0,0-1.292-.988,2.145,2.145,0,1,1,0-4.148,1.033,1.033,0,0,0,1.3-.985V1.024A1.026,1.026,0,0,0,14.848,0H2.287A2.292,2.292,0,0,0,0,2.292v2.4c0,.324,0,2.016,0,2.34V14.9A1.026,1.026,0,0,0,1.024,15.92H3.171A3.36,3.36,0,0,0,6.1,20.22a3.357,3.357,0,0,0,3.39-4.3Z" transform="translate(376.001 1971)" fill="#c2a349"/>
      <path id="Union_15" data-name="Union 15" d="M-5857.714,38A2.293,2.293,0,0,1-5860,35.708V23.1a1.026,1.026,0,0,1,1.025-1.024h2.356a1.021,1.021,0,0,1,.841.441,1.031,1.031,0,0,1,.113.953,2.164,2.164,0,0,0,2.147,2.908,2.168,2.168,0,0,0,1.849-2.9,1.037,1.037,0,0,1,.113-.957,1.021,1.021,0,0,1,.84-.44h5.417V18.594a3.359,3.359,0,0,1-3.975-3.475A3.347,3.347,0,0,1-5845.3,12.1V8.356a1.026,1.026,0,0,1,1.025-1.024h12.561a2.291,2.291,0,0,1,2.287,2.291V30.081a.586.586,0,0,1-.585.587.587.587,0,0,1-.587-.587V23.253h-3.912a.594.594,0,0,1-.484-.918,2.906,2.906,0,0,0,.5-1.634c-.006-3.783-5.74-3.787-5.745,0a2.9,2.9,0,0,0,.5,1.634.591.591,0,0,1-.484.918h-3.913v7.511a.587.587,0,0,1-.9.5,1.635,1.635,0,0,0-2.481,1.368,1.644,1.644,0,0,0,2.481,1.388.588.588,0,0,1,.9.5v2.318h12.414a1.119,1.119,0,0,0,1.115-1.121V32.419a.586.586,0,0,1,.587-.585.585.585,0,0,1,.585.585v3.288A2.291,2.291,0,0,1-5831.712,38Zm-1.115-2.293a1.119,1.119,0,0,0,1.115,1.121h12.414V35.374a2.827,2.827,0,0,1-3.363-3.05A2.837,2.837,0,0,1-5845.3,29.9V23.253h-5.209a3.357,3.357,0,0,1-2.93,4.3,3.358,3.358,0,0,1-3.39-4.3h-2Zm25.51-15a4.055,4.055,0,0,1-.24,1.377h2.959V9.624a1.118,1.118,0,0,0-1.115-1.119h-12.414v4.416a.585.585,0,0,1-.857.519,2.156,2.156,0,0,0-3.12,1.756,2.158,2.158,0,0,0,3.12,2.052.586.586,0,0,1,.857.519v4.313h2.959a4.076,4.076,0,0,1-.237-1.321,3.862,3.862,0,0,1,4.047-4.047A3.856,3.856,0,0,1-5833.318,20.7Zm-20.991,2.921V20.742l-1.428-1.427a2.063,2.063,0,0,1-.994.254,2.08,2.08,0,0,1-2.078-2.078,2.08,2.08,0,0,1,2.078-2.078,2.079,2.079,0,0,1,2.077,2.078,2.064,2.064,0,0,1-.253.994l1.6,1.6a.586.586,0,0,1,.17.415v3.125a.586.586,0,0,1-.585.587A.586.586,0,0,1-5854.309,23.625Zm-3.328-6.133a.906.906,0,0,0,.906.906.908.908,0,0,0,.906-.906.908.908,0,0,0-.906-.906A.906.906,0,0,0-5857.637,17.492Zm6.918-7.018v-8.4a2.082,2.082,0,0,1-1.493-1.993A2.081,2.081,0,0,1-5850.134-2a2.081,2.081,0,0,1,2.078,2.078,2.082,2.082,0,0,1-1.493,1.993v8.4a.585.585,0,0,1-.585.585A.585.585,0,0,1-5850.719,10.474Zm-.32-10.4a.906.906,0,0,0,.893.9h.026a.906.906,0,0,0,.893-.9.906.906,0,0,0-.906-.906A.906.906,0,0,0-5851.04.078Zm2.982,9.458v-2.7a.582.582,0,0,1,.172-.413l3.747-3.749a.586.586,0,0,1,.415-.172h7.9a2.08,2.08,0,0,1,1.993-1.491,2.08,2.08,0,0,1,2.077,2.078,2.078,2.078,0,0,1-2.077,2.077,2.08,2.08,0,0,1-1.993-1.491h-7.659l-3.406,3.4v2.46a.585.585,0,0,1-.585.587A.585.585,0,0,1-5848.057,9.536Zm13.323-6.45a.906.906,0,0,0,.906.9.906.906,0,0,0,.9-.9.906.906,0,0,0-.9-.906A.906.906,0,0,0-5834.734,3.085Z" transform="translate(6245.426 1973)" fill="#10998e"/>
    </g>
    <g id="Quality-2" data-name="Quality">
      <path id="Union_16" data-name="Union 16" d="M-5825.768,14.41a.646.646,0,0,1-.643-.647l.006-2.2-1.393-2.132a.644.644,0,0,1,.188-.891.643.643,0,0,1,.892.187l.957,1.465.946-1.452a.646.646,0,0,1,.893-.19.647.647,0,0,1,.188.893l-1.382,2.121,0,2.2a.646.646,0,0,1-.645.644Zm-6.037-.646V9.721h-.646a.644.644,0,0,1-.644-.644.645.645,0,0,1,.644-.646h2.59a.645.645,0,0,1,.644.646.644.644,0,0,1-.644.644h-.656v4.043a.645.645,0,0,1-.644.646A.645.645,0,0,1-5831.805,13.764Zm-3.894,0V9.077a.645.645,0,0,1,.644-.646.646.646,0,0,1,.646.646v4.687a.646.646,0,0,1-.646.646A.645.645,0,0,1-5835.7,13.764Zm-3.71.632a.647.647,0,0,1-.536-.635V9.077a.646.646,0,0,1,.645-.646.645.645,0,0,1,.644.646V13.12c.314,0,.691,0,.994,0h0a.646.646,0,0,1,.646.641.645.645,0,0,1-.641.649l-1.157,0A4.354,4.354,0,0,1-5839.41,14.4Zm-6.424-.029a.644.644,0,0,1-.376-.829l1.744-4.622a.09.09,0,0,0,.007-.018.748.748,0,0,1,.694-.466h0a.751.751,0,0,1,.694.466c0,.006,0,.01.006.016l1.76,4.621a.645.645,0,0,1-.374.832.643.643,0,0,1-.831-.374l-.281-.735h-1.938l-.277.734a.646.646,0,0,1-.6.418A.616.616,0,0,1-5845.833,14.367Zm1.594-2.4h.96l-.482-1.266Zm-5.631,2.441a2.23,2.23,0,0,1-1.209-.349,2.013,2.013,0,0,1-1.034-1.759V9.077a.645.645,0,0,1,.644-.646.646.646,0,0,1,.646.646V12.3c0,.243.072.44.437.672a.945.945,0,0,0,.519.146.984.984,0,0,0,.482-.109c.466-.234.529-.491.529-.712V9.077a.645.645,0,0,1,.644-.646.647.647,0,0,1,.646.646V12.3a2.011,2.011,0,0,1-1.238,1.863,2.346,2.346,0,0,1-1.062.247ZM-5860,11.42a2.993,2.993,0,0,1,2.99-2.988,2.993,2.993,0,0,1,2.988,2.988,2.969,2.969,0,0,1-.456,1.584l.285.285a.645.645,0,0,1,0,.912.642.642,0,0,1-.456.19.64.64,0,0,1-.456-.19l-.278-.276a2.966,2.966,0,0,1-1.628.485A2.993,2.993,0,0,1-5860,11.42Zm1.29,0a1.7,1.7,0,0,0,1.7,1.7,1.678,1.678,0,0,0,.681-.144l-.275-.274a.645.645,0,0,1,0-.912.646.646,0,0,1,.912,0l.259.259a1.68,1.68,0,0,0,.122-.629,1.7,1.7,0,0,0-1.7-1.7A1.7,1.7,0,0,0-5858.711,11.42ZM-5833.53,3.4V1.625h-1.956V3.4a.646.646,0,0,1-.645.646.645.645,0,0,1-.644-.646V-1.282a.644.644,0,0,1,.644-.646.646.646,0,0,1,.645.646V.335h1.956V-1.282a.645.645,0,0,1,.645-.646.645.645,0,0,1,.644.646V3.4a.645.645,0,0,1-.644.646A.645.645,0,0,1-5833.53,3.4Zm-14.612,0V1.625h-1.956V3.4a.645.645,0,0,1-.644.646.646.646,0,0,1-.646-.646V-1.282a.646.646,0,0,1,.646-.646.645.645,0,0,1,.644.646V.335h1.956V-1.282a.645.645,0,0,1,.644-.646.645.645,0,0,1,.644.646V3.4a.645.645,0,0,1-.644.646A.645.645,0,0,1-5848.143,3.4Zm4.883-2.416A2.993,2.993,0,0,1-5840.27-2a2.973,2.973,0,0,1,1.67.51.644.644,0,0,1,.174.9.647.647,0,0,1-.9.174,1.686,1.686,0,0,0-.949-.29,1.7,1.7,0,0,0-1.7,1.7,1.7,1.7,0,0,0,1.7,1.7,1.306,1.306,0,0,0,1.3-1.056h-.682a.644.644,0,0,1-.644-.644.644.644,0,0,1,.644-.644h1.4a.644.644,0,0,1,.644.644,2.717,2.717,0,0,1-2.667,2.988A2.992,2.992,0,0,1-5843.26.988Zm-2.6,2.344V-1.356a.644.644,0,0,1,.645-.644.644.644,0,0,1,.644.644V3.333a.644.644,0,0,1-.644.644A.644.644,0,0,1-5845.863,3.333Z" transform="translate(6426.814 2146.307)" fill="#c2a349"/>
      <path id="Path_100184" data-name="Path 100184" d="M42.715,23.922a.575.575,0,0,1,0-.366l1.217-3.6a1.513,1.513,0,0,0-1.433-2H40.433a2.078,2.078,0,0,0-.761-3.187.788.788,0,0,1-.315-1.175,2.076,2.076,0,0,0-1.349-3.256A.787.787,0,0,1,37.4,9.29a2.079,2.079,0,0,0-1.943-2.805c-.064,0-.129,0-.2.01a.779.779,0,0,1-.605-.2.788.788,0,0,1-.259-.581c0-.023,0-.05,0-.079a2.052,2.052,0,0,0-.529-1.593A2.069,2.069,0,0,0,31.6,3.489a.787.787,0,0,1-1.053-.609,2.077,2.077,0,0,0-3.256-1.348.788.788,0,0,1-1.175-.315A2.078,2.078,0,0,0,22.62.756a.789.789,0,0,1-1.218,0,2.078,2.078,0,0,0-3.493.46.788.788,0,0,1-1.175.315A2.077,2.077,0,0,0,13.478,2.88a.787.787,0,0,1-1.054.608A2.079,2.079,0,0,0,9.618,5.431c0,.063,0,.129.01.2a.78.78,0,0,1-.2.605.788.788,0,0,1-.581.259c-.023,0-.05,0-.079,0a2.051,2.051,0,0,0-1.593.529A2.069,2.069,0,0,0,6.623,9.29a.787.787,0,0,1-.609,1.053A2.077,2.077,0,0,0,4.666,13.6a.788.788,0,0,1-.315,1.175,2.078,2.078,0,0,0-.761,3.188H1.525a1.512,1.512,0,0,0-1.432,2l1.214,3.572a.575.575,0,0,1,0,.366L.09,27.5a1.513,1.513,0,0,0,1.433,2H6.512a2.084,2.084,0,0,0,2.053,1.774c.064,0,.129,0,.2-.01a.779.779,0,0,1,.605.2.787.787,0,0,1,.259.581c0,.023,0,.05,0,.079,0,.009,0,.017,0,.025l-2.9,5.96a1.512,1.512,0,0,0,1.168,2.163l3.767.481a.578.578,0,0,1,.33.161l2.681,2.656a1.513,1.513,0,0,0,2.425-.412l2.63-5.4.077,0A2.068,2.068,0,0,0,21.4,37a.788.788,0,0,1,1.218,0,2.068,2.068,0,0,0,1.6.755l.077,0,2.63,5.4a1.514,1.514,0,0,0,2.425.412l2.68-2.655a.576.576,0,0,1,.33-.162l3.766-.481A1.512,1.512,0,0,0,37.3,38.106l-.63-1.294a.645.645,0,1,0-1.159.564l.63,1.295a.222.222,0,0,1-.173.318L32.2,39.47a1.873,1.873,0,0,0-1.074.524l-2.68,2.656a.224.224,0,0,1-.359-.06l-2.572-5.283a2.081,2.081,0,0,0,.6-.768.788.788,0,0,1,1.175-.315,2.077,2.077,0,0,0,3.256-1.349.787.787,0,0,1,1.054-.608,2.07,2.07,0,0,0,2.173-.456l.419.862a.645.645,0,0,0,1.159-.564l-.954-1.96c0-.009,0-.018,0-.027a.779.779,0,0,1,.2-.605.788.788,0,0,1,.581-.259c.023,0,.05,0,.079,0a2.054,2.054,0,0,0,1.593-.529,2.091,2.091,0,0,0,.662-1.235H42.5a1.512,1.512,0,0,0,1.432-2ZM15.936,42.588a.224.224,0,0,1-.359.061L12.9,39.992a1.875,1.875,0,0,0-1.072-.523l-3.768-.481a.223.223,0,0,1-.172-.319l2.366-4.861a2.066,2.066,0,0,0,2.174.456.787.787,0,0,1,1.053.609,2.076,2.076,0,0,0,3.256,1.348.788.788,0,0,1,1.175.315,2.082,2.082,0,0,0,.6.768ZM35.98,29.777a.78.78,0,0,1-.605.2c-.069-.006-.137-.01-.2-.01A2.078,2.078,0,0,0,33.11,32.24c0,.031,0,.059,0,.083a.79.79,0,0,1-1.064.735,2.077,2.077,0,0,0-2.777,1.6.792.792,0,0,1-.783.66.779.779,0,0,1-.453-.148,2.062,2.062,0,0,0-1.2-.386A2.086,2.086,0,0,0,24.94,36a.785.785,0,0,1-.721.462.774.774,0,0,1-.605-.286,2.078,2.078,0,0,0-3.206,0,.775.775,0,0,1-.605.287A.785.785,0,0,1,19.081,36a2.086,2.086,0,0,0-1.893-1.215,2.061,2.061,0,0,0-1.2.386.779.779,0,0,1-.453.148.792.792,0,0,1-.783-.66,2.077,2.077,0,0,0-2.775-1.6.788.788,0,0,1-.863-.211.778.778,0,0,1-.2-.605c.007-.07.01-.136.01-.2a2.078,2.078,0,0,0-2.274-2.066c-.032,0-.059,0-.083,0a.779.779,0,0,1-.617-.3.8.8,0,0,1-.106-.181H11.2a15.143,15.143,0,0,0,21.628,0H36.18a.81.81,0,0,1-.2.281ZM13.09,29.5H30.932a13.875,13.875,0,0,1-17.842,0Zm29.589-1.382a.219.219,0,0,1-.182.093H1.523a.224.224,0,0,1-.212-.3l1.217-3.6a1.872,1.872,0,0,0,0-1.193L1.313,19.546a.223.223,0,0,1,.212-.295H9.966a.645.645,0,1,0,0-1.289H8.174A13.868,13.868,0,0,1,31.041,8.353a.645.645,0,0,0,.84-.978,15.156,15.156,0,0,0-25,10.587H5.254a2.075,2.075,0,0,0-.543-.688.774.774,0,0,1-.287-.605.785.785,0,0,1,.462-.721A2.086,2.086,0,0,0,6.1,14.054a2.061,2.061,0,0,0-.386-1.2.778.778,0,0,1-.148-.453.792.792,0,0,1,.66-.783A2.077,2.077,0,0,0,7.83,8.84a.8.8,0,0,1-.052-.279.793.793,0,0,1,.263-.584.778.778,0,0,1,.606-.2c.07.007.135.01.2.01a2.078,2.078,0,0,0,2.066-2.273c0-.032,0-.059,0-.083A.79.79,0,0,1,11.972,4.7a2.076,2.076,0,0,0,2.777-1.6.792.792,0,0,1,.783-.66.778.778,0,0,1,.453.148,2.061,2.061,0,0,0,1.2.386,2.086,2.086,0,0,0,1.893-1.216A.785.785,0,0,1,19.8,1.29a.774.774,0,0,1,.605.286,2.078,2.078,0,0,0,3.206,0,.789.789,0,0,1,1.327.175,2.086,2.086,0,0,0,1.893,1.215,2.061,2.061,0,0,0,1.2-.386.778.778,0,0,1,.453-.148.792.792,0,0,1,.783.66,2.077,2.077,0,0,0,2.775,1.6.789.789,0,0,1,.863.211.778.778,0,0,1,.2.605c-.007.07-.01.136-.01.2a2.078,2.078,0,0,0,2.274,2.066c.032,0,.059,0,.083,0a.79.79,0,0,1,.735,1.064,2.077,2.077,0,0,0,1.6,2.777.792.792,0,0,1,.66.783.778.778,0,0,1-.148.453,2.061,2.061,0,0,0-.386,1.2,2.086,2.086,0,0,0,1.216,1.893.785.785,0,0,1,.462.721.774.774,0,0,1-.286.605,2.077,2.077,0,0,0-.544.689H37.139a15.015,15.015,0,0,0-3.1-8.311.645.645,0,0,0-1.022.786,13.732,13.732,0,0,1,2.833,7.525H12.974a.645.645,0,0,0,0,1.289H42.5a.224.224,0,0,1,.212.3l-1.217,3.6a1.874,1.874,0,0,0,0,1.193l1.214,3.574a.218.218,0,0,1-.03.2Z" transform="translate(562.989 2133.999)" fill="#10998e"/>
    </g>
    <g id="Care-2" data-name="Care">
      <path id="Path_100192" data-name="Path 100192" d="M6.994,279.126h5.635a2.9,2.9,0,0,0,2.863-2.463,12.638,12.638,0,0,1,4.37.455l8.5,2.833a6.672,6.672,0,0,0,5.146-.4l17.2-9a2.962,2.962,0,1,0-2.294-5.461L38.4,269.519a2.758,2.758,0,0,0-2.687-3l-.012,0h-.012c-.017,0-.032,0-.049,0s-.016,0-.024,0H28.584L23.207,264a8.745,8.745,0,0,0-3.67-.814H15.492a2.9,2.9,0,0,0-2.863-2.464H6.994a.723.723,0,0,0-.723.723V278.4a.723.723,0,0,0,.723.723Zm15.6-13.812c5.806,2.684,5.528,2.645,5.828,2.645h7.268a1.335,1.335,0,0,1-.049,2.669H27a.723.723,0,0,0,0,1.446h8.7a3.254,3.254,0,0,0,1.262-.338l12.02-5.321a1.518,1.518,0,0,1,1.983.816,1.538,1.538,0,0,1-.873,2.01l-17.256,9.025a5.218,5.218,0,0,1-4.022.314l-8.5-2.833a13.708,13.708,0,0,0-4.782-.53V264.636h4A7.281,7.281,0,0,1,22.6,265.314ZM7.717,262.172h4.912a1.464,1.464,0,0,1,1.463,1.463v12.584a1.464,1.464,0,0,1-1.463,1.463H7.717Z" transform="translate(253.73 2087.712)" fill="#10998e"/>
      <path id="Path_100193" data-name="Path 100193" d="M169.424,63.927a.7.7,0,0,0,.411.133.709.709,0,0,0,.411-.133c.514-.37,12.584-9.128,12.584-16.171a7.6,7.6,0,0,0-7.477-7.7,7.358,7.358,0,0,0-5.52,2.516,7.389,7.389,0,0,0-5.526-2.516,7.6,7.6,0,0,0-7.478,7.7c0,7.043,12.08,15.8,12.595,16.171Z" transform="translate(117.172 2285.94)" fill="#c2a349"/>
    </g>
    <g id="Sustainability-2" data-name="Sustainability" transform="translate(0 0)">
      <path id="Path_100200" data-name="Path 100200" d="M31.914,31.364a10.726,10.726,0,0,0,.339,12.2A20.244,20.244,0,0,0,29.8,50.693a1.054,1.054,0,0,0,.923,1.176,1,1,0,0,0,.136.01,1.063,1.063,0,0,0,1.056-.921c1.073-8.362,9.852-15.665,11.142-16.7a1.071,1.071,0,0,1,1.282.546,1.043,1.043,0,0,1,.021,1c-5.381,5.033-7.717,8.5-6.753,10.033a1.109,1.109,0,0,0,.938.5c3.909-.122,6.862-1.5,8.776-4.106,4.569-6.211,1.428-17.129,1.292-17.591a1.06,1.06,0,0,0-.756-.725,1.075,1.075,0,0,0-1.017.27c-1.892,1.848-4.205,2.244-6.656,2.664-3.051.521-6.207,1.062-8.265,4.517Z" transform="translate(169.213 2117.121)" fill="#c2a349"/>
      <path id="Union_17" data-name="Union 17" d="M-5835.65,51.188l-3.787-4.775a1.056,1.056,0,0,1-.223-.771,1.049,1.049,0,0,1,.379-.706l4.7-3.847a1.017,1.017,0,0,1,1.143-.1,1.053,1.053,0,0,1,.533,1.034l-.271,2.551a20.212,20.212,0,0,0,16.748-17.884,20.469,20.469,0,0,0-12.229-20.951,1.052,1.052,0,0,1-.558-1.37,1.026,1.026,0,0,1,1.35-.57,22.583,22.583,0,0,1,13.493,23.118A22.293,22.293,0,0,1-5833.4,46.733l-.415,3.908a1.046,1.046,0,0,1-.737.9,1.014,1.014,0,0,1-.292.043A1.028,1.028,0,0,1-5835.65,51.188Zm-11.185-5.829a22.385,22.385,0,0,1-13.28-23.067,22.419,22.419,0,0,1,8.095-15.084,21.722,21.722,0,0,1,10.936-4.778l.413-3.91a1.045,1.045,0,0,1,.737-.9,1.022,1.022,0,0,1,1.1.35l3.786,4.782a1.065,1.065,0,0,1,.22.773,1.053,1.053,0,0,1-.379.708l-4.7,3.852a1.03,1.03,0,0,1-.648.233,1.021,1.021,0,0,1-.5-.13,1.052,1.052,0,0,1-.531-1.036l.271-2.563a19.717,19.717,0,0,0-9.409,4.255,20.323,20.323,0,0,0-7.337,13.671,20.289,20.289,0,0,0,12.035,20.906,1.061,1.061,0,0,1,.547,1.381,1.037,1.037,0,0,1-.953.639A1.032,1.032,0,0,1-5846.835,45.359Z" transform="translate(6046.246 2130.421)" fill="#10998e"/>
    </g>
  </g>
</svg>
