<svg xmlns="http://www.w3.org/2000/svg" width="116" height="60" viewBox="0 0 116 60">
  <g id="Logo_White" data-name="Logo White" transform="translate(-0.001 0.002)">
    <g id="Group_42803" data-name="Group 42803" transform="translate(0.001 -0.002)">
      <g id="Group_42800" data-name="Group 42800">
        <path id="Path_99463" data-name="Path 99463" d="M58.082,14.723A73.021,73.021,0,0,0,49.35,9.555,74.046,74.046,0,0,0,28.984,2.226C22.051.942,13.662.575,7.277,4.039a19.143,19.143,0,0,0-3.2,2.128A13.425,13.425,0,0,0,1.7,8.8,10.137,10.137,0,0,0,.1,12.943a9.362,9.362,0,0,0,.344,4.223,13.893,13.893,0,0,0,2.214,4.2,13.465,13.465,0,0,0,1.207,1.408,14.4,14.4,0,0,0,2.772,2.3,25.4,25.4,0,0,0,8.279,2.906c9.033,1.6,18.581-1.441,22.136-3.106a69.025,69.025,0,0,1-14.73,2.152c-2.357.052-10.9-.391-15.546-4.442-4.6-4.018-6-8.551-3.46-12.459,1.16-1.78,3.216-3.3,6.07-4.619,5.831-2.7,14.764-2.7,21.511-1.193,13.07,2.92,24.36,11.9,24.36,11.9l2.825-1.494Z" transform="translate(-0.001 -0.684)" fill="#fff"/>
        <path id="Path_99464" data-name="Path 99464" d="M80.7,20.2a3.287,3.287,0,0,1,.926.344c.9.363,1.785.768,2.653,1.2a66.487,66.487,0,0,1,9.381,5.836c3.722,2.7,6.962,5.965,10.689,8.637.644.463,1.3.921,1.947,1.384a39.554,39.554,0,0,0,10.88,5.736,11.424,11.424,0,0,0,2.109.511,57.662,57.662,0,0,1-7.525-4.185c-.964-.606-1.871-1.3-2.787-1.976s-1.823-1.307-2.72-1.985c-1.837-1.389-3.607-2.858-5.363-4.347-.954-.811-1.909-1.627-2.863-2.434a43.9,43.9,0,0,0-11.075-7.048A16.291,16.291,0,0,0,80.7,20.2Z" transform="translate(-42.353 -10.56)" fill="#fff"/>
        <path id="Path_99465" data-name="Path 99465" d="M158.432,11.622s-5.669-1.856-16.735.959a80.224,80.224,0,0,0-23.787,10.1c.787.62,1.575,1.245,2.362,1.861a22.5,22.5,0,0,0,2.038-1.384q1.052-.687,2.123-1.341,2.147-1.31,4.376-2.472a80.849,80.849,0,0,1,8.15-3.712,60.612,60.612,0,0,1,8.136-2.567,52.947,52.947,0,0,1,9.4-1.379q1.968-.107,3.937-.057Z" transform="translate(-61.887 -5.762)" fill="#fff"/>
        <path id="Path_99466" data-name="Path 99466" d="M129.618,18.165,127.17,19.7a66.529,66.529,0,0,0,22.842,12.54,31.864,31.864,0,0,0,22.208-.954c6.862-3.044,12.278-9.8,10.107-17.6a15.284,15.284,0,0,0-3.693-6.418C174.253,2.69,167.553.71,161.412.157A38.336,38.336,0,0,0,154.67.138a48.879,48.879,0,0,0-15.427,4.209,41.918,41.918,0,0,0-10.484,6.513,10.545,10.545,0,0,1,1.718-1.026,59.557,59.557,0,0,1,18.648-6.9,37.051,37.051,0,0,1,17.508.945c5.473,1.7,11.018,5.392,12.507,11.257a11.683,11.683,0,0,1,.339,3.569,11.251,11.251,0,0,1-2.863,6.466,17.709,17.709,0,0,1-7.625,4.757,25.523,25.523,0,0,1-9.257,1.346c-.153,0-.31-.014-.463-.019a39.687,39.687,0,0,1-14.091-3.817,91.006,91.006,0,0,1-15.289-9.085c-.086-.062-.177-.124-.262-.191Z" transform="translate(-66.812 0.002)" fill="#fff"/>
        <path id="Path_99467" data-name="Path 99467" d="M59.407,40.777a15.316,15.316,0,0,0-1.78.969q-1.374.78-2.777,1.5c-1.913.978-3.87,1.875-5.864,2.677a57.7,57.7,0,0,1-23.592,4.495A38.026,38.026,0,0,1,12.52,47.309a.992.992,0,0,1,.253.157l-.253-.157A7.215,7.215,0,0,0,13.875,48.4l-.01-.01a12.245,12.245,0,0,0,1.8,1A28.875,28.875,0,0,0,20.684,51.2c8.637,2.252,18.319.3,26.622-2.457a63.694,63.694,0,0,0,14.048-6.361S59.417,40.786,59.407,40.777Z" transform="translate(-6.546 -21.317)" fill="#fff"/>
      </g>
      <g id="Group_42802" data-name="Group 42802" transform="translate(18.109 40.34)">
        <g id="Group_42801" data-name="Group 42801" transform="translate(7.735 15.255)">
          <path id="Path_99468" data-name="Path 99468" d="M59.186,116.67V120.9h-.73V118L57.1,120.9h-.506L55.23,118v2.9H54.5V116.67h.787l1.56,3.316L58.4,116.67Z" transform="translate(-54.5 -116.565)" fill="#fff"/>
          <path id="Path_99469" data-name="Path 99469" d="M68.67,116.67V120.9h-.73V116.67Z" transform="translate(-61.527 -116.565)" fill="#fff"/>
          <path id="Path_99470" data-name="Path 99470" d="M76.745,120.883h-.73l-2.2-3.159v3.159h-.73V116.65h.73l2.2,3.149V116.65h.73Z" transform="translate(-64.219 -116.555)" fill="#fff"/>
          <path id="Path_99471" data-name="Path 99471" d="M85.1,116.67V120.9h-.73V116.67Z" transform="translate(-70.117 -116.565)" fill="#fff"/>
          <path id="Path_99472" data-name="Path 99472" d="M93.175,120.883h-.73l-2.195-3.159v3.159h-.73V116.65h.73l2.195,3.149V116.65h.73Z" transform="translate(-72.809 -116.555)" fill="#fff"/>
          <path id="Path_99473" data-name="Path 99473" d="M103.75,117.825a1.134,1.134,0,0,0-.482-.477,1.488,1.488,0,0,0-.711-.162,1.577,1.577,0,0,0-.787.191,1.382,1.382,0,0,0-.539.534,1.622,1.622,0,0,0-.2.8,1.653,1.653,0,0,0,.2.806,1.363,1.363,0,0,0,.539.539,1.577,1.577,0,0,0,.787.191,1.451,1.451,0,0,0,.969-.315,1.331,1.331,0,0,0,.453-.859h-1.67v-.554h2.453v.539a2.064,2.064,0,0,1-.367.907,2.159,2.159,0,0,1-.773.658,2.31,2.31,0,0,1-1.059.248,2.364,2.364,0,0,1-1.145-.277,2.1,2.1,0,0,1-1.126-1.88,2.088,2.088,0,0,1,1.131-1.88,2.385,2.385,0,0,1,1.14-.277,2.426,2.426,0,0,1,1.265.329,1.913,1.913,0,0,1,.8.94h-.878Z" transform="translate(-78.44 -116.507)" fill="#fff"/>
          <path id="Path_99474" data-name="Path 99474" d="M121.023,120.778l-.549-.525a2.136,2.136,0,0,1-.7.453,2.275,2.275,0,0,1-.845.148,2.126,2.126,0,0,1-.84-.157,1.274,1.274,0,0,1-.563-.453,1.184,1.184,0,0,1-.2-.682,1.249,1.249,0,0,1,.262-.783,1.742,1.742,0,0,1,.783-.544,1.613,1.613,0,0,1-.262-.4,1.047,1.047,0,0,1-.076-.41.841.841,0,0,1,.153-.5,1,1,0,0,1,.434-.348,1.552,1.552,0,0,1,.654-.129,1.411,1.411,0,0,1,.644.138.887.887,0,0,1,.5.9h-.73a.474.474,0,0,0-.115-.348.45.45,0,0,0-.334-.124.486.486,0,0,0-.344.119.384.384,0,0,0-.129.291.589.589,0,0,0,.1.324,2.4,2.4,0,0,0,.348.415l1.179,1.112.453-.711h.787l-.577.935-.162.248,1.083,1.021h-.954Zm-1.031-.978-1.179-1.126c-.506.191-.754.477-.754.864a.66.66,0,0,0,.243.52.934.934,0,0,0,.625.21A1.464,1.464,0,0,0,119.993,119.8Z" transform="translate(-87.349 -116.45)" fill="#fff"/>
          <path id="Path_99475" data-name="Path 99475" d="M135.51,117.228v1.241h1.537v.568H135.51v1.3h1.727v.568H134.78V116.67h2.457v.568H135.51Z" transform="translate(-96.472 -116.565)" fill="#fff"/>
          <path id="Path_99476" data-name="Path 99476" d="M147.065,120.883h-.73l-2.2-3.159v3.159h-.73V116.65h.73l2.2,3.149V116.65h.73Z" transform="translate(-100.984 -116.555)" fill="#fff"/>
          <path id="Path_99477" data-name="Path 99477" d="M155.42,117.228v1.241h1.536v.568H155.42v1.3h1.727v.568H154.69V116.67h2.457v.568H155.42Z" transform="translate(-106.882 -116.565)" fill="#fff"/>
          <path id="Path_99478" data-name="Path 99478" d="M165.634,120.888l-1.026-1.689h-.558v1.689h-.73V116.66h1.537a1.984,1.984,0,0,1,.868.172,1.2,1.2,0,0,1,.53.458,1.184,1.184,0,0,1,.177.639,1.223,1.223,0,0,1-.253.749,1.3,1.3,0,0,1-.778.458l1.1,1.751Zm-1.579-2.243h.806a.874.874,0,0,0,.616-.2.686.686,0,0,0,.21-.525.655.655,0,0,0-.205-.515.9.9,0,0,0-.62-.186h-.806v1.417Z" transform="translate(-111.394 -116.56)" fill="#fff"/>
          <path id="Path_99479" data-name="Path 99479" d="M176.364,117.825a1.134,1.134,0,0,0-.482-.477,1.546,1.546,0,0,0-.711-.162,1.577,1.577,0,0,0-.787.191,1.382,1.382,0,0,0-.539.534,1.622,1.622,0,0,0-.2.8,1.654,1.654,0,0,0,.2.806,1.363,1.363,0,0,0,.539.539,1.577,1.577,0,0,0,.787.191,1.429,1.429,0,0,0,.964-.315,1.331,1.331,0,0,0,.453-.859h-1.67v-.554h2.453v.539a2.064,2.064,0,0,1-.367.907,2.159,2.159,0,0,1-.773.658,2.31,2.31,0,0,1-1.059.248,2.364,2.364,0,0,1-1.145-.277,2.1,2.1,0,0,1-1.126-1.88,2.088,2.088,0,0,1,1.131-1.88,2.385,2.385,0,0,1,1.14-.277,2.426,2.426,0,0,1,1.265.329,1.913,1.913,0,0,1,.8.94h-.878Z" transform="translate(-116.403 -116.507)" fill="#fff"/>
          <path id="Path_99480" data-name="Path 99480" d="M188.269,116.67l-1.47,2.7V120.9h-.73v-1.532l-1.479-2.7h.811l1.031,2.076,1.031-2.076Z" transform="translate(-122.514 -116.565)" fill="#fff"/>
        </g>
        <path id="Path_99481" data-name="Path 99481" d="M38.29,84.49h1.789V94.678H38.29Z" transform="translate(-38.29 -84.485)" fill="#fff"/>
        <path id="Path_99482" data-name="Path 99482" d="M52.38,84.49H54l5.788,7.277-.014-3.04V84.495h1.789V94.682H59.943l-5.788-7.277.014,3.245v4.032H52.38V84.495Z" transform="translate(-45.657 -84.485)" fill="#fff"/>
        <path id="Path_99483" data-name="Path 99483" d="M81.95,84.485h7.592v1.57h-5.8V89.2h5.511v1.541H83.739v3.927H81.95V84.48Z" transform="translate(-61.117 -84.48)" fill="#fff"/>
        <path id="Path_99484" data-name="Path 99484" d="M106.82,84.49h1.789V94.678H106.82Z" transform="translate(-74.119 -84.485)" fill="#fff"/>
        <path id="Path_99485" data-name="Path 99485" d="M120.9,84.49h1.622l5.788,7.277-.014-3.04V84.495h1.789V94.682h-1.622l-5.788-7.277.014,3.245v4.032H120.9V84.495Z" transform="translate(-81.481 -84.485)" fill="#fff"/>
        <path id="Path_99486" data-name="Path 99486" d="M150.48,84.49h1.789V94.678H150.48Z" transform="translate(-96.946 -84.485)" fill="#fff"/>
        <path id="Path_99487" data-name="Path 99487" d="M162.35,84.49h8.742v1.57h-3.474v8.613h-1.789V86.06h-3.474V84.49Z" transform="translate(-103.152 -84.485)" fill="#fff"/>
        <path id="Path_99488" data-name="Path 99488" d="M188.78,84.485h7.883v1.541h-6.108v2.72H196.4v1.513h-5.845v2.854h6.2v1.556H188.78V84.48Z" transform="translate(-116.97 -84.48)" fill="#fff"/>
      </g>
    </g>
  </g>
</svg>
