<svg xmlns="http://www.w3.org/2000/svg" xmlns:xlink="http://www.w3.org/1999/xlink" width="150" height="78" viewBox="0 0 150 78">
  <defs>
    <linearGradient id="linear-gradient" x2="1" gradientUnits="objectBoundingBox">
      <stop offset="0" stop-color="#0896a5"/>
      <stop offset="1" stop-color="#159b81"/>
    </linearGradient>
  </defs>
  <g id="Logo" transform="translate(-98 -3773)">
    <path id="Union_6" data-name="Union 6" d="M123.66,48A85.651,85.651,0,0,1,94.175,31.661l3.16-2,.012-.006c.111.088.228.168.339.249a117.282,117.282,0,0,0,19.735,11.835,50.867,50.867,0,0,0,18.189,4.973c.2.006.4.019.6.025a32.68,32.68,0,0,0,11.95-1.753,22.843,22.843,0,0,0,9.843-6.2,14.723,14.723,0,0,0,3.7-8.422,15.341,15.341,0,0,0-.437-4.65c-1.921-7.639-9.079-12.445-16.144-14.663a47.4,47.4,0,0,0-22.6-1.231,76.43,76.43,0,0,0-24.071,8.988,14.16,14.16,0,0,0-2.187,1.31,54.043,54.043,0,0,1,13.5-8.458,62.662,62.662,0,0,1,19.914-5.483,49.1,49.1,0,0,1,8.7.025c7.927.721,16.576,3.3,22.23,9.262a19.952,19.952,0,0,1,4.767,8.361c2.8,10.157-4.189,18.959-13.046,22.924A37.8,37.8,0,0,1,136.79,50,45.468,45.468,0,0,1,123.66,48Zm-10.947.7a50.911,50.911,0,0,1-14.044-7.471c-.838-.6-1.681-1.2-2.513-1.8-4.81-3.481-8.992-7.739-13.8-11.251a85.675,85.675,0,0,0-12.11-7.6c-1.121-.566-2.26-1.094-3.424-1.566a4.219,4.219,0,0,0-1.2-.448c2.735-.038,5.6,1.125,8.069,2.182A56.577,56.577,0,0,1,88,29.921c1.232,1.05,2.464,2.113,3.7,3.17,2.266,1.94,4.552,3.854,6.923,5.663,1.159.882,2.329,1.7,3.511,2.586s2.353,1.784,3.6,2.573a74.218,74.218,0,0,0,9.714,5.451A14.612,14.612,0,0,1,112.714,48.7ZM34.25,44.932a37.126,37.126,0,0,1-6.474-2.362,15.766,15.766,0,0,1-2.328-1.3l.013.013a9.319,9.319,0,0,1-1.75-1.424l.326.2a1.281,1.281,0,0,0-.326-.2c5.445,2.182,10.686,3.829,16.618,4.053a73.887,73.887,0,0,0,30.453-5.856c2.575-1.044,5.1-2.213,7.57-3.487q1.81-.942,3.585-1.958a19.792,19.792,0,0,1,2.3-1.262c.013.013,2.513,2.1,2.513,2.1a81.841,81.841,0,0,1-18.133,8.286c-7.442,2.495-15.742,4.483-23.854,4.483A41.25,41.25,0,0,1,34.25,44.932Zm1-3.364a32.581,32.581,0,0,1-10.686-3.785,18.624,18.624,0,0,1-3.579-3,17.483,17.483,0,0,1-1.558-1.833,18.16,18.16,0,0,1-2.858-5.477,12.3,12.3,0,0,1-.443-5.5,13.277,13.277,0,0,1,2.07-5.4,17.41,17.41,0,0,1,3.061-3.425,24.651,24.651,0,0,1,4.133-2.773c8.241-4.513,19.07-4.034,28.019-2.362A95.009,95.009,0,0,1,79.7,17.556a94.136,94.136,0,0,1,11.272,6.733l-3.647,1.945s-14.574-11.692-31.444-15.5c-8.71-1.964-20.24-1.964-27.767,1.555-3.683,1.721-6.338,3.7-7.834,6.017C17,23.4,18.8,29.3,24.746,34.538c6,5.278,17.025,5.856,20.069,5.788a88.383,88.383,0,0,0,19.014-2.8,55.584,55.584,0,0,1-21.646,4.634A39.473,39.473,0,0,1,35.254,41.569ZM91.561,30.461c-1.017-.8-2.033-1.616-3.05-2.424a103.048,103.048,0,0,1,30.7-13.153c14.284-3.668,21.6-1.25,21.6-1.25l-.006.006q-2.541-.065-5.082.075a67.747,67.747,0,0,0-12.128,1.8,77.633,77.633,0,0,0-10.5,3.344,103.981,103.981,0,0,0-10.52,4.836q-2.874,1.51-5.649,3.22-1.385.849-2.741,1.747c-.241.164-2.434,1.805-2.62,1.805A.015.015,0,0,1,91.561,30.461Zm4.7-10.339-.03.026Z" transform="translate(82 3767)" fill="url(#linear-gradient)"/>
    <path id="Union_8" data-name="Union 8" d="M58.081,11.785a1.743,1.743,0,0,1-.771-.617,1.607,1.607,0,0,1-.274-.929A1.693,1.693,0,0,1,57.4,9.172a2.375,2.375,0,0,1,1.07-.742,2.163,2.163,0,0,1-.358-.539A1.422,1.422,0,0,1,58,7.333a1.136,1.136,0,0,1,.21-.682,1.36,1.36,0,0,1,.594-.475A2.129,2.129,0,0,1,59.7,6a1.938,1.938,0,0,1,.882.189,1.236,1.236,0,0,1,.541.507,1.219,1.219,0,0,1,.144.722h-1a.643.643,0,0,0-.156-.475.621.621,0,0,0-.458-.169.669.669,0,0,0-.47.162.522.522,0,0,0-.176.4.8.8,0,0,0,.137.443,3.276,3.276,0,0,0,.477.565l1.613,1.514.62-.968h1.078l-.791,1.274-.222.338L63.4,11.89H62.1l-.007.006-.751-.714a2.934,2.934,0,0,1-.954.617,3.122,3.122,0,0,1-1.157.2A2.913,2.913,0,0,1,58.081,11.785Zm-.046-1.579a.9.9,0,0,0,.333.709,1.28,1.28,0,0,0,.856.286,2.009,2.009,0,0,0,1.456-.637L59.067,9.029C58.375,9.289,58.035,9.679,58.035,10.206Zm36.836,1.365a2.9,2.9,0,0,1-1.123-1.046A2.849,2.849,0,0,1,93.33,9.01a2.794,2.794,0,0,1,.418-1.515,2.828,2.828,0,0,1,1.129-1.046,3.276,3.276,0,0,1,1.561-.376,3.334,3.334,0,0,1,1.731.448,2.613,2.613,0,0,1,1.1,1.28h-1.2l.006-.007a1.549,1.549,0,0,0-.659-.65,2.134,2.134,0,0,0-.974-.221,2.169,2.169,0,0,0-1.078.26,1.894,1.894,0,0,0-.738.727A2.2,2.2,0,0,0,94.355,9a2.244,2.244,0,0,0,.268,1.1,1.863,1.863,0,0,0,.738.735,2.169,2.169,0,0,0,1.078.259,1.96,1.96,0,0,0,1.32-.429,1.811,1.811,0,0,0,.62-1.17H96.093V8.743H99.45v.735a2.813,2.813,0,0,1-.5,1.235,2.964,2.964,0,0,1-1.058.9,3.169,3.169,0,0,1-1.45.339A3.243,3.243,0,0,1,94.872,11.571Zm-47.424,0a2.9,2.9,0,0,1-1.123-1.046,2.849,2.849,0,0,1-.418-1.514,2.842,2.842,0,0,1,1.548-2.562,3.272,3.272,0,0,1,1.56-.376,3.331,3.331,0,0,1,1.731.448,2.608,2.608,0,0,1,1.1,1.28h-1.2V7.794a1.556,1.556,0,0,0-.66-.65,2.05,2.05,0,0,0-.974-.221,2.163,2.163,0,0,0-1.077.26,1.89,1.89,0,0,0-.738.727A2.2,2.2,0,0,0,46.926,9a2.244,2.244,0,0,0,.267,1.1,1.859,1.859,0,0,0,.738.735,2.162,2.162,0,0,0,1.077.259,1.989,1.989,0,0,0,1.326-.429,1.807,1.807,0,0,0,.62-1.17H48.669V8.743h3.357v.735a2.813,2.813,0,0,1-.5,1.235,2.956,2.956,0,0,1-1.058.9,3.169,3.169,0,0,1-1.45.339A3.243,3.243,0,0,1,47.448,11.571Zm33.989.338V6.143H84.8v.774H82.436V8.593h2.1v.774h-2.1v1.768H84.8v.774Zm-13,0V6.143H71.8v.774H69.432V8.593h2.1v.774h-2.1v1.768H71.8v.774Zm34.556-.007V9.816l-2.024-3.673h1.11l1.411,2.828L104.9,6.143H106l-2.012,3.673V11.9Zm-67.48,0V6.143h1V11.9Zm-10.731,0V6.143h1V11.9Zm-3.363,0V7.956L19.56,11.9h-.693L17,7.956V11.9H16V6.143h1.078l2.135,4.518,2.129-4.518h1.071V11.9ZM78.073,11.9l-3-4.3v4.3h-1V6.131h1l3,4.29V6.131h1V11.9Zm-35.2,0-3-4.3v4.3h-1V6.131h1l3,4.29V6.131h1V11.9Zm-10.73,0-3.005-4.3v4.3h-1V6.131h1l3.005,4.29V6.131h1V11.9Zm58.1,0-1.4-2.3h-.764v2.3h-1V6.136h2.1a2.734,2.734,0,0,1,1.189.234,1.65,1.65,0,0,1,.725.625,1.605,1.605,0,0,1,.241.871,1.663,1.663,0,0,1-.346,1.021,1.777,1.777,0,0,1-1.065.624L91.429,11.9ZM88.079,8.835V8.84h1.1a1.2,1.2,0,0,0,.843-.266.935.935,0,0,0,.287-.715.89.89,0,0,0-.282-.7,1.236,1.236,0,0,0-.848-.254h-1.1Z" transform="translate(112 3839)" fill="#3d3d3d"/>
    <path id="Union_7" data-name="Union 7" d="M80.777,20,72.8,10.01l.02,4.455V20H70.349V6.006h2.237L80.566,16l-.019-4.174V6.013h2.467V20ZM35.7,20l-7.98-9.991.02,4.455V20H25.27V6.006h2.237L35.487,16l-.02-4.174V6.013h2.467V20Zm54.112-.006V6.006h2.468V19.995Zm-28.723,0V6.006h2.467V19.995ZM16,19.995V6.006h2.467V19.995Zm99.007-.007V6.007h10.869V8.123h-8.421v3.734h8.06v2.077h-8.06v3.918H126v2.136Zm-12.592,0V8.162h-4.79V6.006h12.046V8.162h-4.79V19.988Zm-57.692,0V6.007H55.191V8.162h-8v4.317h7.6V14.6h-7.6v5.392Zm52.9-13.982h.007Z" transform="translate(102 3819)" fill="#3d3d3d"/>
  </g>
</svg>
